<?xml version="1.0" standalone="no"?>
<!DOCTYPE svg PUBLIC "-//W3C//DTD SVG 20010904//EN"
 "http://www.w3.org/TR/2001/REC-SVG-20010904/DTD/svg10.dtd">
<svg version="1.0" xmlns="http://www.w3.org/2000/svg"
 width="800.000000pt" height="960.000000pt" viewBox="0 0 800.000000 960.000000"
 preserveAspectRatio="xMidYMid meet">
<metadata>
Created by potrace 1.16, written by Peter Selinger 2001-2019
</metadata>
<g transform="translate(0.000000,960.000000) scale(0.100000,-0.100000)"
fill="#000000" stroke="none">
<path d="M4026 9445 c5 -12 0 -14 -26 -9 -23 5 -39 1 -61 -15 -16 -12 -35 -19
-41 -15 -7 5 -9 2 -5 -8 4 -12 -2 -17 -26 -21 -90 -14 -112 -26 -172 -89 -32
-35 -62 -63 -66 -63 -4 0 -11 -4 -16 -9 -5 -5 -3 -6 5 -2 18 11 15 -5 -12 -65
-29 -63 -52 -266 -42 -361 12 -117 65 -247 142 -348 39 -52 74 -130 74 -167 0
-18 -35 -16 -70 2 -34 17 -43 2 -12 -21 15 -12 11 -14 -33 -15 l-50 -1 51 -8
c71 -10 89 -23 44 -31 l-35 -6 33 -2 c19 0 45 -10 58 -20 l25 -19 -58 -21
c-32 -12 -65 -26 -73 -31 -8 -6 -29 -17 -47 -25 -22 -10 -30 -20 -27 -30 5
-11 11 -12 24 -5 29 16 48 11 20 -5 -14 -8 -20 -14 -15 -15 6 0 21 7 33 16 13
9 29 13 37 11 7 -3 16 0 18 7 3 7 19 16 35 19 37 8 104 -2 96 -14 -8 -14 4
-11 33 9 15 9 24 11 20 5 -6 -9 -3 -11 7 -7 8 3 17 12 20 20 3 8 14 14 25 14
11 0 21 5 23 12 6 18 38 1 38 -21 0 -10 7 -22 16 -25 8 -3 12 -2 9 4 -9 14 8
12 25 -2 7 -7 4 0 -8 16 -12 15 -19 32 -16 37 3 5 -8 26 -24 46 -48 61 -51 92
-6 58 27 -20 36 -18 22 5 -7 11 -22 20 -33 20 -41 0 -125 52 -179 111 -81 87
-145 230 -146 325 0 23 7 36 25 48 19 12 24 23 20 37 -7 20 5 25 21 9 13 -13
77 17 69 31 -8 12 -82 12 -90 -1 -3 -5 -11 -10 -16 -10 -6 0 -8 4 -5 9 4 5 -3
7 -14 4 -31 -8 -27 42 5 63 20 13 23 19 14 30 -9 11 -15 11 -25 3 -11 -9 -14
-8 -14 5 0 9 4 16 9 16 5 0 11 12 14 28 11 64 34 129 52 150 20 23 45 30 45
11 0 -5 5 -7 10 -4 9 5 14 -7 11 -27 -1 -9 49 -108 55 -108 3 0 0 8 -5 18 -12
23 -8 179 6 193 9 9 14 1 22 -27 15 -54 35 -81 26 -35 -5 22 -4 31 3 27 6 -3
13 4 15 16 l4 23 8 -22 c4 -13 11 -20 16 -18 4 3 18 -14 30 -37 12 -24 30 -53
41 -64 19 -21 19 -22 -5 -28 -14 -3 -27 -12 -30 -20 -5 -11 1 -12 30 -3 31 10
37 9 49 -8 18 -25 18 -35 -2 -35 -8 0 -12 -5 -9 -10 3 -6 -2 -13 -12 -16 -38
-12 -59 -26 -72 -46 -18 -29 -7 -33 18 -6 18 18 24 20 30 9 7 -10 16 -11 38
-4 16 6 40 10 53 9 14 -1 28 2 31 7 26 38 129 -178 129 -269 0 -30 -4 -34 -65
-58 -50 -20 -74 -24 -110 -20 -26 4 -50 2 -57 -4 -7 -6 -33 -10 -58 -10 -48 1
-109 -24 -111 -45 0 -6 -2 -22 -5 -35 l-4 -24 26 21 c15 12 32 21 39 21 6 0
27 7 45 16 31 16 34 16 45 0 23 -30 96 -15 107 23 4 13 116 61 143 61 14 0 35
-42 35 -70 0 -30 21 -35 40 -9 12 15 16 30 11 43 -4 12 -5 32 -1 46 5 21 7 22
13 8 3 -10 12 -15 20 -12 12 4 16 -19 20 -128 5 -121 11 -190 21 -257 2 -14 0
-35 -5 -48 -14 -37 -1 -27 21 17 11 22 22 40 24 40 2 0 17 -28 34 -62 16 -35
43 -80 60 -101 17 -21 34 -47 37 -58 4 -10 11 -19 16 -19 5 0 9 -6 9 -14 0 -7
7 -19 15 -26 13 -11 14 -10 9 4 -14 36 8 13 25 -27 10 -23 26 -48 35 -56 9 -7
16 -23 16 -35 1 -20 1 -20 11 -2 16 26 6 92 -23 156 -14 30 -28 72 -31 92 -3
20 -12 52 -20 70 -19 43 -37 119 -37 157 0 17 -4 31 -10 31 -8 0 -13 -22 -12
-60 0 -3 3 -16 7 -30 11 -38 -7 -15 -22 28 -16 48 -16 62 1 62 7 0 21 10 29
23 15 20 16 21 16 2 1 -13 4 -16 11 -9 7 7 3 37 -16 94 -14 46 -26 104 -25
129 1 72 10 172 17 183 4 6 2 13 -5 17 -6 4 -12 35 -13 69 -2 34 -6 62 -10 62
-4 0 -4 7 -1 17 4 11 3 14 -5 9 -8 -5 -10 7 -7 44 6 65 -30 165 -85 238 -48
64 -51 75 -7 37 17 -16 -4 7 -48 51 -44 43 -101 89 -125 102 -25 12 -37 17
-26 10 79 -54 137 -100 132 -105 -3 -3 -22 9 -41 26 -80 70 -191 119 -268 119
-22 0 -44 5 -50 11 -16 16 -27 14 -21 -4z m483 -511 c17 -21 21 -41 21 -97 0
-67 -1 -70 -39 -108 -21 -22 -42 -47 -46 -57 -7 -15 -9 -13 -15 8 -5 14 -8 19
-9 13 -1 -17 -28 -17 -34 0 -3 8 -1 35 4 61 5 27 6 59 3 72 -9 36 5 29 22 -12
22 -52 29 -34 10 22 -19 56 -19 54 -6 54 6 0 10 -10 10 -23 0 -13 7 -32 15
-43 15 -18 15 -15 9 36 -3 30 -10 60 -16 67 -6 8 -3 15 9 22 28 16 40 13 62
-15z"/>
<path d="M3530 6323 c-30 -2 -59 -8 -64 -14 -6 -5 -22 -9 -37 -9 -33 0 -69
-41 -69 -78 0 -30 -20 -103 -32 -116 -4 -6 -8 -26 -8 -47 0 -20 -4 -49 -9 -65
-5 -16 -17 -56 -27 -89 -17 -58 -18 -59 -25 -30 -6 20 -7 13 -3 -24 3 -34 1
-57 -6 -61 -6 -3 -12 -42 -15 -86 -13 -239 -17 -293 -26 -334 -27 -128 -41
-176 -60 -193 -14 -14 -19 -28 -16 -45 4 -18 -2 -35 -19 -55 -13 -16 -24 -39
-24 -52 0 -13 -13 -52 -29 -87 -151 -337 -214 -486 -239 -568 -29 -96 -81
-311 -87 -360 -9 -79 -14 -108 -27 -170 -6 -30 -12 -66 -13 -80 -5 -53 -47
-289 -66 -362 -10 -42 -16 -83 -13 -92 3 -9 1 -16 -6 -16 -6 0 -9 -4 -6 -9 3
-4 -1 -43 -9 -85 -21 -110 0 -191 89 -346 26 -44 44 -84 42 -89 -3 -5 8 -26
24 -46 17 -21 30 -44 30 -52 0 -7 9 -31 20 -53 15 -29 18 -50 14 -84 -5 -36
-2 -54 20 -97 32 -65 32 -73 3 -92 -13 -9 -30 -30 -37 -47 -10 -23 -15 -28
-22 -18 -8 11 -9 11 -6 0 2 -8 7 -13 11 -12 4 0 21 -7 37 -16 20 -12 30 -27
33 -48 l4 -31 1 33 c3 47 22 39 22 -9 0 -89 22 -235 41 -268 29 -50 15 -49
-15 1 -14 24 -26 38 -26 32 0 -17 57 -92 80 -104 15 -8 20 -8 18 1 -2 6 3 14
11 17 9 3 11 0 6 -9 -5 -8 3 -3 18 10 26 24 27 28 12 116 -6 36 -5 38 8 22 8
-10 13 -27 10 -37 -4 -13 0 -20 9 -20 19 0 39 -43 28 -60 -5 -9 -9 -9 -13 -1
-4 7 -5 8 -4 1 2 -7 7 -12 12 -12 23 0 45 -20 45 -39 0 -12 9 -32 20 -46 11
-14 20 -35 20 -47 0 -12 9 -27 21 -34 13 -9 18 -19 14 -32 -4 -11 0 -22 9 -27
9 -5 24 -41 35 -80 10 -40 26 -79 34 -88 28 -28 51 -84 39 -98 -7 -8 -5 -23 8
-49 10 -21 16 -38 12 -38 -3 0 -1 -5 6 -12 8 -8 8 -16 -1 -32 -6 -12 -12 -41
-12 -65 0 -25 -6 -46 -12 -48 -8 -3 -10 -20 -6 -54 4 -33 2 -49 -6 -49 -6 0
-11 -15 -11 -35 0 -19 -5 -35 -11 -35 -6 0 -9 -6 -6 -14 3 -7 1 -18 -4 -23 -5
-5 -10 -25 -11 -45 -2 -20 -6 -34 -10 -32 -10 6 -20 -34 -12 -47 4 -7 3 -9 -4
-5 -5 3 -12 0 -15 -6 -2 -7 -8 -10 -12 -6 -4 4 -2 14 5 23 8 10 9 15 1 15 -6
0 -14 -12 -17 -28 -4 -15 -14 -37 -22 -50 -12 -18 -12 -25 -2 -38 11 -13 10
-16 -8 -21 -20 -5 -26 -15 -23 -36 0 -4 -3 -7 -8 -7 -5 0 -7 -9 -4 -20 4 -15
0 -20 -16 -20 -11 0 -21 6 -21 13 0 8 -4 7 -10 -3 -5 -8 -10 -19 -10 -25 0 -5
5 -3 10 5 8 13 10 12 10 -3 0 -10 4 -16 9 -13 4 3 17 -1 27 -8 18 -14 18 -15
-4 -34 -28 -25 -44 -76 -29 -91 7 -7 7 -11 1 -11 -6 0 -14 3 -18 7 -3 4 -15 7
-26 8 -21 2 -24 -8 -20 -95 2 -50 21 -74 70 -92 35 -12 42 -33 8 -22 -28 9
-85 51 -98 73 -8 14 -9 14 -10 -1 0 -9 4 -20 10 -23 5 -3 15 -15 21 -26 10
-20 10 -20 -15 -4 -31 21 -33 12 -6 -22 11 -14 20 -31 20 -38 0 -6 11 -17 25
-23 22 -10 25 -9 25 9 0 11 5 17 10 14 6 -3 10 -15 10 -25 0 -10 8 -21 18 -23
10 -3 6 -5 -11 -6 -15 0 -42 6 -59 15 -16 9 -28 11 -24 6 10 -16 88 -49 133
-57 66 -11 189 13 265 51 36 18 69 38 73 44 3 5 11 10 16 10 6 0 7 -5 3 -11
-4 -8 0 -8 15 0 25 14 28 23 4 14 -12 -4 -8 5 12 26 21 23 37 31 53 28 12 -2
22 0 22 4 0 5 -7 9 -16 9 -13 0 -12 5 5 34 12 18 21 42 21 53 0 11 3 23 7 27
16 16 33 86 33 139 0 49 3 60 19 64 13 3 17 11 14 24 -5 18 -6 19 -19 2 -21
-29 -16 -5 12 51 26 52 53 87 41 54 -9 -25 0 -22 14 3 8 15 8 19 0 15 -6 -4
-11 -1 -11 8 0 30 13 46 37 46 15 0 22 -4 17 -11 -11 -19 29 7 51 32 11 12 14
19 6 14 -9 -5 -12 -3 -9 6 3 8 10 14 15 14 6 0 15 4 20 9 5 5 3 6 -4 2 -22
-12 -14 10 12 34 14 13 25 32 25 42 0 10 5 18 10 18 13 0 13 0 -11 -55 -18
-41 -20 -55 -11 -99 6 -28 10 -105 10 -171 -1 -118 9 -178 37 -218 7 -10 11
-34 8 -54 -3 -24 -1 -33 6 -29 15 9 14 5 -5 -34 -22 -43 -31 -164 -14 -185 7
-8 16 -12 21 -9 5 3 9 -2 9 -10 0 -10 9 -16 25 -16 14 0 25 -5 25 -11 0 -8 4
-8 13 -1 14 11 57 6 71 -8 15 -15 26 -12 26 7 0 15 1 15 19 -1 23 -21 58 -12
36 10 -8 8 -19 13 -26 12 -6 -2 -13 2 -15 7 -3 6 19 9 56 7 55 -3 60 -6 60
-27 0 -28 28 -42 37 -18 6 15 7 14 14 -3 7 -17 8 -17 8 4 1 12 6 22 11 22 6 0
15 -10 20 -22 5 -13 9 -17 9 -10 1 10 6 10 21 2 14 -7 20 -7 20 0 0 5 5 10 11
10 7 0 24 13 40 29 15 16 31 26 35 23 5 -4 2 1 -6 11 -12 16 -12 20 1 28 24
15 3 10 -42 -11 -47 -21 -99 -26 -99 -10 0 6 14 10 30 10 63 0 120 49 120 102
0 16 4 28 8 28 5 0 8 -18 8 -40 -1 -32 1 -37 12 -27 10 11 9 23 -3 62 -8 28
-18 66 -21 85 -3 19 -9 40 -12 45 -4 6 -7 12 -7 15 -3 18 -19 56 -26 61 -5 3
-20 50 -34 105 -14 54 -30 109 -36 121 -6 11 -8 27 -4 34 5 7 4 10 -3 5 -7 -4
-14 7 -18 31 -4 21 -14 53 -21 72 -8 19 -16 51 -18 70 -2 22 -12 41 -27 53
l-23 18 23 20 c21 18 23 25 17 69 -4 27 -2 65 4 86 6 23 6 46 0 61 -7 20 -4
31 12 54 18 23 20 37 15 70 -4 29 -1 62 13 108 67 227 91 351 126 649 8 67 24
161 35 210 24 95 43 302 30 318 -4 6 -11 87 -15 180 -3 94 -7 193 -9 220 -1
28 -5 55 -8 61 -4 5 2 23 13 40 21 33 24 67 8 112 -16 47 5 232 46 397 56 225
130 622 155 825 7 52 17 101 23 109 7 8 10 39 9 73 -2 37 1 65 9 75 9 10 14
53 16 122 1 58 3 126 4 151 3 80 -19 294 -34 335 -15 38 -38 172 -53 300 -4
33 -13 69 -20 80 -8 11 -14 31 -14 46 0 14 -4 39 -10 55 -5 16 -14 81 -18 145
l-8 116 -59 61 c-38 40 -95 83 -164 124 l-106 63 -360 1 c-198 1 -385 -1 -415
-3z m424 -1740 c3 -87 12 -243 19 -348 6 -104 11 -244 11 -310 -2 -200 -24
-557 -34 -570 -14 -17 4 -190 26 -245 9 -25 18 -66 18 -91 1 -27 8 -55 17 -65
12 -15 15 -41 14 -113 -1 -84 -3 -95 -23 -112 -21 -16 -23 -29 -28 -136 -7
-167 -6 -580 2 -696 5 -69 1 -144 -11 -252 l-18 -153 21 -56 c21 -56 21 -102
0 -158 -11 -29 -28 -38 -28 -15 0 8 -10 22 -21 33 -12 10 -37 52 -55 92 -19
40 -52 96 -74 125 -40 53 -64 108 -80 182 -5 22 -20 78 -34 125 -14 47 -26
100 -26 119 0 48 -27 147 -56 203 -14 27 -41 104 -60 171 -20 67 -46 147 -59
177 -13 30 -42 100 -65 154 -23 54 -59 126 -81 159 -21 34 -39 69 -39 80 0 10
-5 28 -11 39 -6 11 -13 34 -16 51 -3 17 -11 40 -19 52 -11 17 -14 90 -3 90 1
0 3 33 4 73 2 60 7 78 25 97 16 17 21 31 16 48 -11 45 82 290 230 609 35 76
104 238 153 361 49 123 96 238 105 255 27 52 127 164 142 158 8 -3 13 -2 13 2
-2 14 1 22 10 22 5 0 12 -71 15 -157z m-999 -2484 c29 -60 45 -105 45 -130 0
-72 -24 -90 -55 -42 -23 34 -58 263 -40 263 2 0 25 -41 50 -91z"/>
</g>
</svg>
